<?xml version="1.0" encoding="UTF-8" standalone="no"?>
<svg
   version="1.1"
   width="236.44337"
   height="112.70363"
   viewBox="0 0 236.44338 112.70363"
   style="fill:#000000;fill-opacity:1;fill-rule:nonzero;stroke:none;stroke-width:0.599121"
   id="svg48"
   xmlns="http://www.w3.org/2000/svg"
   xmlns:svg="http://www.w3.org/2000/svg">
  <defs
     id="defs48" />
  <path
     d="m 40.847165,75.236751 c 0,3.9038 -1.516361,5.91485 -4.643875,5.91485 H 1.5163631 v 10.765 H 42.45831 c 8.719122,0 13.268222,-5.32337 13.268222,-16.79815 v -8.04418 c 0,-11.47478 -4.5491,-16.91644 -13.268222,-16.91644 H 19.523237 c -3.127504,0 -4.643867,-2.01105 -4.643867,-5.91485 v -7.09781 c 0,-3.7855 1.516363,-5.79654 4.643867,-5.79654 H 53.451983 V 20.583621 H 13.268221 C 4.5491042,20.583621 0,25.788681 0,37.263471 v 6.74292 c 0,11.3565 4.5491042,16.91646 13.268221,16.91646 H 36.20329 c 3.127514,0 4.643875,2.01103 4.643875,5.91483 z M 79.135479,20.583621 H 64.350891 v 72.39765 c 0,14.313909 3.980464,19.518979 14.784588,19.518979 H 104.43987 V 101.61694 H 83.874127 c -3.127507,0 -4.738648,-1.892749 -4.738648,-5.796549 z m 25.209571,0 H 89.465683 v 71.33298 h 14.879367 z m 50.70356,60.56798 H 132.9665 c -3.1275,0 -4.73866,-2.01105 -4.73866,-5.91485 v -38.09158 c 0,-3.7855 1.61116,-5.79654 4.73866,-5.79654 h 22.08211 z m 14.97413,-60.56798 H 128.0383 c -11.27799,0 -14.59504,5.91485 -14.59504,18.8092 v 33.95118 c 0,13.01266 3.98048,18.5726 14.78458,18.5726 h 26.82077 v 3.90379 c 0,3.9038 -1.61114,5.796549 -4.64388,5.796549 h -31.65419 v 10.88331 h 36.39284 c 10.80413,0 14.87936,-5.44166 14.87936,-21.293429 z m 66.24643,12.89434 c 0,-8.51736 -4.07525,-12.89434 -9.66685,-12.89434 h -7.48707 c -5.02297,0 -6.91843,1.77446 -8.81389,6.15144 l -15.8271,35.37075 V -1.8684141e-5 H 179.50014 V 91.916601 h 11.94138 l 25.11486,-55.8361 c 0.66341,-1.53785 1.51637,-2.36593 2.36932,-2.36593 1.61113,0 2.4641,1.30126 2.4641,3.9038 v 54.29823 h 14.87937 z"
     id="path46" />
  <path
     d="m 181.10365,107.80906 h -2.44077 v 1.71675 h 2.44077 z"
     id="path47" />
  <path
     d="m 189.47423,107.86385 h -3.64549 c -0.51633,0 -0.78231,-0.31047 -0.78231,-0.91316 v -5.88077 c 0,-0.58443 0.26598,-0.89491 0.78231,-0.89491 h 3.64549 z m 2.47205,-9.350779 h -6.93114 c -1.86186,0 -2.40947,0.91316 -2.40947,2.903839 v 5.24157 c 0,2.00895 0.65712,2.86733 2.44076,2.86733 h 4.4278 v 0.60269 c 0,0.60268 -0.26598,0.8949 -0.76664,0.8949 h -5.22575 v 1.68022 h 6.00803 c 1.78364,0 2.45641,-0.84012 2.45641,-3.2874 z m 4.72509,9.350779 c -0.5476,0 -0.81357,-0.27396 -0.81357,-0.82185 v -2.64816 c 0,-0.62096 0.26597,-0.93143 0.82923,-0.93143 h 3.58293 v 4.40144 z m 6.07064,-6.06339 c 0,-2.465559 -0.65714,-3.287389 -2.44078,-3.287389 h -6.60258 v 1.661939 h 5.71077 c 0.57889,0 0.86054,0.38354 0.86054,1.11406 v 0.51139 h -4.41216 c -1.79929,0 -2.45643,0.78531 -2.45643,3.28737 v 1.13233 c 0,2.52032 0.70408,3.30565 2.45643,3.30565 h 6.88421 z m 12.36029,-3.287389 h -2.72239 l -2.58159,5.424179 -2.47205,-5.424179 h -3.01967 v 11.012739 h 2.44076 v -8.23674 l 2.95708,6.35562 2.95709,-6.35562 v 8.23674 h 2.44077 z m 8.40188,4.090969 c 0,0.60268 -0.26598,0.89489 -0.76665,0.89489 h -3.69243 v -2.42901 c 0,-0.58443 0.26597,-0.89491 0.78228,-0.89491 h 2.91015 c 0.50067,0 0.76665,0.31048 0.76665,0.89491 z m 2.45641,-1.29669 c 0,-2.045499 -0.73537,-2.794279 -2.45641,-2.794279 h -4.45908 c -1.79929,0 -2.44078,0.82183 -2.44078,3.287389 v 4.4197 c 0,2.44727 0.65714,3.30565 2.44078,3.30565 h 6.60257 v -1.66196 h -5.82029 c -0.51631,0 -0.78228,-0.31047 -0.78228,-0.91316 v -1.75327 h 4.45908 c 1.768,0 2.45641,-0.85837 2.45641,-2.70296 z m 8.02634,5.64334 c 0,0.60269 -0.25032,0.91316 -0.76663,0.91316 h -5.72642 v 1.66196 h 6.75906 c 1.43941,0 2.19043,-0.82185 2.19043,-2.59339 v -1.2419 c 0,-1.77154 -0.75102,-2.61165 -2.19043,-2.61165 h -3.78633 c -0.51631,0 -0.76665,-0.31048 -0.76665,-0.91316 v -1.09579 c 0,-0.58443 0.25034,-0.89491 0.76665,-0.89491 h 5.60125 v -1.661939 h -6.63388 c -1.43942,0 -2.19043,0.80357 -2.19043,2.575109 v 1.04101 c 0,1.75327 0.75101,2.61164 2.19043,2.61164 h 3.78632 c 0.51631,0 0.76663,0.31048 0.76663,0.91316 z"
     id="path48" />
</svg>
