<?xml version="1.0" encoding="UTF-8" standalone="no"?>
<!--
Copyright © 2025 Frederic Nowak. All Rights Reserved.
Copyright © 2025 Sligh Games. All Rights Reserved.
-->
<svg
   version="1.1"
   width="517.85394"
   height="521.74005"
   viewBox="0 0 517.85395 521.74007"
   xmlns="http://www.w3.org/2000/svg"
   xmlns:svg="http://www.w3.org/2000/svg">
  <g
     id="water"
     style="fill:#2f5c7e;fill-opacity:1">
    <path d="m 376.85396,406.63601 97.45333,-0.72933 -9.18666,11.364 -69.40133,-0.23867 -5.80267,-3.87066 H 379.5153 Z" />
    <path d="M 197.1875 435.88477 L 171.80078 460.79688 C 174.80124 462.20262 177.82631 463.54434 180.88281 464.80664 L 196.94922 451.84375 L 197.1875 435.88477 z " />
  </g>
  <g id="sun" style="opacity:1;fill:#ffe66d;fill-opacity:1;fill-rule:nonzero;stroke:none;stroke-width:1.33333">
    <path d="M 218.3913,9.1000218 C 92.396637,29.068021 -0.28069354,137.82802 6.397815e-4,265.39602 0.34863977,306.77601 10.609973,347.46935 29.921972,384.06801 H 68.391305 C 46.187305,348.72935 34.229972,307.92801 33.844639,266.20402 33.713972,169.43735 95.348637,83.38002 187.00997,52.360021 Z m 82.83867,0.4426667 32.29066,43.6093325 C 423.3393,84.474687 483.83396,168.79735 484.71929,263.91735 l 0.0107,1.52533 c -0.032,41.91733 -11.74,82.99467 -33.824,118.62533 h 37.636 c 19.24,-36.91066 29.292,-77.92133 29.312,-119.54666 l -0.009,-1.74533 C 516.77129,136.94269 425.3753,30.100021 301.22997,9.5426885 Z" />
  </g>
  <g id="leaves-normal" style="fill:#436e4f;fill-opacity:1.0;fill-rule:nonzero;stroke:none;stroke-width:1.33333">
    <path d="M 259.19797,2.20241e-5 308.7393,66.22402 210.47397,66.057354 Z" />
    <path d="m 266.41663,72.44802 17.98934,19.62 17,-18.801333 z" />
    <path d="m 227.81263,167.57868 31.22934,-33.68266 31.724,33.35466 -13.084,18.312 -18.80134,-23.38 -16.83866,23.21867 z" />
    <path d="m 283.08863,188.85468 42.51067,-58.04133 5.068,6.536 2.45333,-6.536 12.75467,0.32267 2.12533,-4.084 H 334.4273 l 12.75466,-21.58267 54.60934,82.73467 -38.26,0.16133 -26.97867,-34.828 -27.95866,35.31733 z" />
    <path d="m 59.244638,272.38535 53.953332,-80.60933 14.22933,18.96933 4.74,-5.724 -10.792,-12.75067 115.92667,0.16267 14.71333,19.12933 -16.676,0.328 11.60933,14.38534 -0.16133,4.74533 -49.21467,-0.16667 15.69334,-18.47466 -9.47867,0.16266 -11.28667,18.47867 -33.02666,0.16133 -12.42667,-16.188 -25.344,34.66267 -44.635995,0.328 15.698666,22.728 z" />
    <path d="m 362.26596,272.34402 14.30134,-18.964 14.30266,0.31333 9.948,13.36933 5.28667,-4.04133 -6.83867,-8.708 31.71334,0.312 -12.12534,18.032 z" />
  </g>
  <g id="leaves-light" style="fill:#689f7c;fill-opacity:1.0;fill-rule:nonzero;stroke:none;stroke-width:1.33333">
    <path d="M 238.44863,96.786686 259.21397,73.734687 280.6353,96.625353 259.54197,122.13069 Z" />
    <path d="m 179.09397,106.91735 29.104,-37.28133 47.41733,56.73467 h -64.42266 z" />
    <path d="m 245.32863,190.82402 13.90134,-18.31334 14.224,18.47467 -13.90134,19.45733 z" />
    <path d="m 316.12063,188.51602 20.10933,-23.54134 19.78534,23.54134 z" />
    <path d="m 161.10464,188.36535 20.11466,-23.708 20.10933,24.036 z" />
    <path d="m 127.0993,251.14135 21.25467,-25.016 20.43733,25.344 z" />
    <path d="m 349.83396,250.91735 18.484,-24.13067 21.604,24.52134 z" />
    <path d="m 265.43797,131.14135 29.42666,29.92133 21.42267,-30.08266 z" />
  </g>
  <g id="leaves-dark" style="fill:#2a443a;fill-opacity:1.0;fill-rule:nonzero;stroke:none;stroke-width:1.33333">
    <path d="m 163.88597,234.62535 12.42667,17.33333 h 29.59333 l -13.572,-17.49466 z" />
    <path d="m 217.02597,72.937354 16.67733,19.458666 19.13067,-19.62 z" />
    <path d="m 171.73397,106.27602 -55.916,82.24 37.604,0.16666 27.63067,-35.156 27.46799,35.31734 26.81867,-0.328 -42.02133,-57.552 -4.57867,6.864 -3.27066,-5.71867 h -12.42667 l -3.59867,-5.072 16.18667,-0.324 z" />
    <path d="m 86.057971,254.24535 13.077333,18.312 56.411996,0.324 -14.06266,-19.292 h -14.39067 l -11.11467,13.896 -4.90666,-4.25067 7.032,-9.484 z" />
    <path d="m 282.14063,192.14668 115.01067,0.39067 -11.292,12.64533 4.28133,7.19734 14.40133,-20.81734 54.68267,81.33867 h -34.052 l 14.984,-22.57333 -44.568,-0.776 -25.88,-34.44267 -11.86933,15.568 h -33.084 l -9.92133,-18.87467 h -10.90134 l 15.18267,18.87467 -49.04267,0.38533 12.068,-17.90133 -16.54133,-1.35867 z" />
    <path d="m 262.29663,126.38002 48.56267,-56.733333 28.448,37.442663 -11.12,19.29067 z" />
    <path d="m 202.14597,131.14135 22.724,30.24933 28.12533,-30.08266 z" />
  </g>
  <g id="trunk" style="fill:#8b6f5a;fill-opacity:1.0;fill-rule:nonzero;stroke:none;stroke-width:1.33333">
    <path d="m 265.05797,214.97468 -5.396,5.068 -6.21334,-4.90666 -7.84933,52.97333 -15.86,-26.32267 -9.31733,-9.31733 4.08933,11.44267 -21.41733,-5.22934 6.536,8.01067 15.20933,4.90667 18.96267,35.47866 -24.19734,-7.19333 -47.57866,1.14666 -9.97333,-27.46933 h -5.56267 l 6.708,21.74534 -6.38,-1.308 8.016,9.47999 -21.42267,1.14534 -19.12933,-8.66667 -23.87067,0.328 25.17734,5.88533 15.04133,8.33867 46.276,-0.65067 29.756,2.12534 25.51066,15.692 3.26534,23.87466 -3.432,11.93334 -19.292,17.5 -60.82267,24.848 -10.792,32.37599 -9.484,1.30667 -4.90666,3.27067 5.068,2.94266 15.36933,-0.97866 11.12,-26.98 12.09867,-3.92667 -6.37467,19.13067 -10.63067,14.88 -1.95866,4.57866 6.376,0.328 0.48933,-4.41733 7.35867,-5.22933 5.22933,7.68266 1.80267,10.30267 8.01066,-8.01067 -2.61466,-18.152 12.42666,-24.19733 44.47467,-18.47333 v 11.44267 l -41.86,28.448 0.81733,41.53066 8.172,17.49467 0.16667,-51.99467 39.89066,-24.69333 16.516,30.08933 5.23467,2.28667 -0.328,-11.93734 -3.76133,-8.49999 3.59466,-7.19334 31.06667,19.45867 -0.16133,14.87466 24.85466,7.03067 -15.536,-12.42667 -0.16266,-17.16666 -37.44267,-25.50533 3.272,-12.42667 39.23867,17.16667 12.26133,26.81733 6.54133,13.40666 4.90533,-6.70266 h 10.95334 l -8.17734,-7.36 -7.192,-23.54133 19.78667,5.71866 9.968,27.468 17.5,-0.32267 12.42267,9.64667 21.42133,-12.91733 -24.036,0.65066 -6.54133,-4.57733 -12.75067,-0.16133 -11.60933,-31.22933 -67.85467,-27.14667 -22.23333,-54.77067 13.896,-7.192 54.93733,-10.63066 33.35867,2.78133 16.34933,-8.33867 24.19733,-5.39599 -20.92666,-0.81734 -19.948,8.17733 -23.38,-1.47466 14.87466,-6.70267 -14.71333,-0.328 7.03067,-21.584 -5.06667,-0.16133 -11.28133,27.14133 -50.19867,4.416 28.61467,-33.68133 19.45333,-0.49067 11.776,-16.18666 -28.45333,-0.328 -5.55733,10.30133 -48.56267,41.86 -2.78,-9.48533 17.66133,-22.4 20.276,-8.17734 -0.16666,-13.40666 -6.86534,0.328 -0.49466,8.172 -18.63467,4.08933 -15.69867,12.75467 z" />
  </g>
  <g id="roots-normal" style="fill:#a39b94;fill-opacity:1;fill-rule:nonzero;stroke:none;stroke-width:1.33333">
    <path d="m 331.08863,422.01601 5.88,11.19333 6.22933,-6.69333 3.34934,8.19333 11.536,8.65067 0.464,2.65067 12.45866,-0.344 37.38,29.188 -10.72933,7.72933 -12.11467,6.92667 -0.11466,-14.88534 -54.45334,-40.844 z" />
    <path d="M 290.53125 420.16211 L 290.67969 480.50391 C 293.54909 480.13975 296.40806 479.71785 299.25781 479.23828 L 299.47852 446.03711 L 321.48438 463.69336 L 321.53516 474.2832 C 324.04101 473.58058 326.52815 472.81544 329.00781 472.02148 L 328.68164 465.70898 L 334.41602 465.70898 L 334.49219 470.17773 C 336.61926 469.43265 338.74537 468.68379 340.84961 467.87109 L 297.78711 434.91211 L 297.54688 424.03125 L 290.53125 420.16211 z " />
    <path d="m 117.3913,479.91734 51.50934,-42.31333 9.188,-5.07733 1.932,11.12 -14.76502,15.3761 -5.85214,6.09434 -14.44551,12.38289 v 18.86533 z" />
    <path d="M 260.05273 416.79688 L 253.03711 423.56836 L 252.7832 482.45898 C 256.08674 482.65431 259.3982 482.75286 262.71484 482.79492 L 262.71484 424.77539 L 260.05273 416.79688 z " />
    <path d="M 226.93359 418.49414 L 217.5 425.26758 L 217.63281 476.27344 L 226.93359 477.46484 L 226.93359 418.49414 z " />
    <path d="M 41.943305,405.91735 H 149.0673 l -2.66133,7.49466 h -5.80133 l -4.83867,3.38533 -84.874665,0.24 z" />
  </g>
  <g id="roots-light" style="fill:#d5cec8;fill-opacity:1;fill-rule:nonzero;stroke:none;stroke-width:1.33333">
    <path d="m 351.83396,418.76668 3.12,5.536 -6.808,1.5 4.036,1.72933 6,9.11467 4.5,3 h 10.61467 l 39.91733,31.26533 14.07334,-10.95867 13.04133,-12.11466 11.42133,-11.192 10.61467,-13.844 -41.192,-0.11467 -20.53733,12.45867 22.5,0.23333 0.052,2.64667 c 0.31333,-3.756 3.38533,-6.64667 7.07333,-6.66134 3.93733,-0.005 7.13067,3.24934 7.14,7.276 l -7.12933,0.0107 h 7.12933 c 0,4.02533 -3.192,7.28533 -7.12933,7.29067 -3.54134,0 -6.54667,-2.656 -7.052,-6.23867 l 0.0307,1.79067 -27.57333,-0.348 -12.348,-9.57334 -21.22933,-0.464 -6.22934,-11.42133 z m 50.39067,29.21866 14.08267,5.73334 -2.34934,3.912 -13.036,-5.47334 z" />
    <path d="M 201.30273 455.24023 L 188.30273 467.9668 L 207.20117 474.74805 C 208.55265 475.12984 209.90315 475.51406 211.26172 475.86914 L 201.30273 455.24023 z " />
    <path d="m 371.30196,390.68268 111.95333,0.484 -6.77066,9.188 -101.79733,-0.484 z" />
    <path d="m 32.755306,390.91201 120.182664,0.724 -1.932,8.464 -112.203998,0.484 z" />
    <path d="m 432.45396,439.06268 c 0,1.26133 -1.12533,2.28666 -2.516,2.28666 -1.39066,0 -2.52133,-1.02533 -2.52133,-2.28666 0,-1.26 1.12533,-2.28667 2.516,-2.28667 1.39067,-0.005 2.52133,1.02133 2.52133,2.28133 l -2.52133,0.005 z" />
  </g>
  <g id="roots-dark" style="fill:#7d756f;fill-opacity:1;fill-rule:nonzero;stroke:none;stroke-width:1.33333">
    <path d="M 308.5625 436.53125 L 347.43555 465.85938 C 348.61315 465.36228 349.78573 464.85448 350.95508 464.33594 L 355.56836 459.91797 L 333.59375 443.45312 L 308.5625 436.53125 z " />
    <path d="M 305.34766 457.42773 L 305.42969 478.82031 C 308.79271 478.16052 312.13429 477.40225 315.46094 476.58203 L 315.38672 465.61914 L 305.34766 457.42773 z " />
    <path d="M 279.27148 413.95898 L 279.27148 413.96484 L 279.20898 459.83398 C 282.19298 460.77132 284.23881 463.58925 284.24414 466.78125 C 275.45363 466.79455 275.45359 466.79297 284.24414 466.79297 C 284.24414 470.81964 281.05843 474.07813 277.12109 474.07812 C 273.18243 474.08312 269.98972 470.82354 269.98438 466.79688 C 269.98438 463.94754 271.60996 461.35987 274.14062 460.17188 L 273.95312 428.27539 L 268.88672 426.25 L 268.91797 482.75391 C 269.86429 482.73297 270.81249 482.73264 271.75781 482.69922 C 276.14488 482.54404 280.51689 482.22563 284.875 481.80273 L 284.96875 420.99023 L 279.27148 413.95898 z " />
    <path d="m 54.801972,422.84934 16.927999,20.24 15.822667,14.71867 24.656002,18.03067 51.15066,-40.47867 -8.46266,-1.47467 1.84266,-4.04666 -13.61866,0.73466 -12.51067,10.308 -26.34933,0.33734 c -0.948,3.00533 -3.68267,5.04266 -6.770669,5.052 -3.937334,0 -7.130667,-3.26 -7.136,-7.28 0,-4.02667 3.188,-7.28667 7.12,-7.292 2.417333,-0.005 4.671999,1.244 5.989329,3.312 l 26.04267,0.34933 8.46267,-7.36 -8.828,-4.78533 z m 47.098668,16.12534 -4.416003,0.005 h 4.416003 z m 27,9.28666 1.82933,5.47867 -12.52133,4.172 -2.34934,-5.47867 z" />
    <path d="M 246.75977 406.41211 L 232.49609 418.5 L 232.7793 477.85938 L 246.91406 479.84766 L 246.75977 406.41211 z " />
    <path d="m 279.22997,466.88134 c 0,1.26 -1.12534,2.28534 -2.516,2.28534 -1.39067,0 -2.516,-1.02534 -2.52134,-2.28534 0,-1.26133 1.12534,-2.28666 2.516,-2.28666 1.39067,-0.005 2.52134,1.02 2.52134,2.28133 l -2.516,0.005 z" />
    <path d="m 99.864637,439.02134 c 0,1.26534 -1.130666,2.28667 -2.521333,2.28667 -1.389333,0.005 -2.514667,-1.02133 -2.514667,-2.28133 -0.0053,-1.26534 1.12,-2.28667 2.510667,-2.28667 1.390667,-0.005 2.52,1.016 2.525333,2.28133 h -2.521333 z" />
  </g>
  <g id="name" style="fill:#7d756f;fill-opacity:1;fill-rule:nonzero;stroke:none;stroke-width:1.33333" >
    <path d="m 180.92457,495.91948 c -0.35444,1.09186 -1.02768,1.47416 -2.03965,1.10258 l -11.22365,-4.12119 -0.97739,3.01086 13.24759,4.86436 c 2.82125,1.03592 4.77653,0.0875 5.81835,-3.12186 l 0.73036,-2.24987 c 1.04182,-3.20938 0.0639,-5.27184 -2.75731,-6.30777 l -7.42111,-2.72494 c -1.01197,-0.37158 -1.32003,-1.1142 -0.96559,-2.20606 l 0.64443,-1.98518 c 0.3437,-1.05877 1.01693,-1.44108 2.02891,-1.06949 l 10.97833,4.0311 0.97738,-3.01086 -13.00226,-4.77427 c -2.82125,-1.03593 -4.76579,-0.12061 -5.80762,3.08877 l -0.61221,1.88593 c -1.03108,3.17629 -0.0639,5.27183 2.75731,6.30776 l 7.42111,2.72494 c 1.01196,0.37158 1.32002,1.11421 0.96559,2.20606 z m 16.49581,-11.64273 -4.86871,-1.47024 -5.53177,20.59701 c -1.09371,4.07228 -0.18061,5.94895 3.37729,7.02335 l 8.33298,2.51638 0.83158,-3.09628 -6.7725,-2.04515 c -1.02992,-0.31101 -1.41587,-1.00971 -1.11758,-2.12033 z m 7.77777,2.12589 -4.94112,-1.31699 -4.87097,20.45878 4.94112,1.31699 z m 12.6958,21.10683 -7.42642,-1.51128 c -1.05182,-0.21405 -1.48634,-0.90814 -1.27802,-2.04145 l 2.03275,-11.05838 c 0.20201,-1.09897 0.85116,-1.57253 1.90298,-1.35849 l 7.42642,1.51129 z m 8.26813,-16.55868 -14.11978,-2.8734 c -3.79288,-0.77185 -5.22408,0.71827 -5.91218,4.46163 l -1.8118,9.85639 c -0.69441,3.7777 0.34755,5.66424 3.98108,6.40367 l 9.02008,1.83559 -0.20832,1.13331 c -0.20832,1.13331 -0.85117,1.57253 -1.87111,1.36498 l -10.6456,-2.1664 -0.58079,3.15954 12.23925,2.4907 c 3.63354,0.73943 5.29448,-0.56143 6.14039,-5.16337 z m 20.57651,6.25094 c 0.26632,-2.50248 -0.98491,-3.9463 -2.88949,-4.16288 l -2.5502,-0.28998 c -1.71089,-0.19455 -2.41199,0.25339 -3.19447,1.46598 l -6.49688,9.77923 1.94189,-18.24724 -5.1004,-0.57996 -2.87399,27.00591 4.0674,0.4625 10.30032,-15.4324 c 0.27406,-0.42614 0.59049,-0.63639 0.881,-0.60337 0.54878,0.0624 0.79862,0.47776 0.71724,1.2424 l -1.69776,15.9533 5.06812,0.5763 z m 6.67159,14.21669 -5.05981,-0.27602 -0.18167,3.28108 5.05982,0.27602 z m 16.56313,0.31131 -7.57057,0.0279 c -1.07223,0.004 -1.62159,-0.58815 -1.61578,-1.74148 l 0.0568,-11.25381 c 0.006,-1.11839 0.56102,-1.71457 1.63323,-1.71855 l 7.57058,-0.0279 z m 5.22411,-17.91321 -14.39385,0.0531 c -3.86651,0.0143 -5.01255,1.76596 -5.0318,5.57547 l -0.0507,10.03058 c -0.0194,3.84447 1.33693,5.48207 5.04102,5.46838 l 9.19516,-0.0339 -0.006,1.15334 c -0.006,1.15335 -0.56101,1.71458 -1.60077,1.71839 l -10.85225,0.04 -0.0162,3.21538 12.47683,-0.046 c 3.70405,-0.0137 5.10932,-1.6265 5.13298,-6.30976 z m 9.47423,17.1594 c -1.13404,0.10228 -1.7213,-0.37046 -1.79419,-1.41528 l -0.35229,-5.04999 c -0.0826,-1.18414 0.4269,-1.82589 1.59335,-1.9311 l 7.41989,-0.66918 0.58553,8.39344 z m 11.76507,-12.69657 c -0.328,-4.70172 -1.79819,-6.14622 -5.49193,-5.81309 l -13.67333,1.23317 0.22109,3.16931 11.82646,-1.06661 c 1.19885,-0.10812 1.83309,0.57066 1.93028,1.96376 l 0.068,0.97517 -9.13714,0.82407 c -3.72616,0.33605 -4.98253,1.95637 -4.64968,6.72775 l 0.15064,2.15931 c 0.33528,4.8062 1.89782,6.17228 5.52676,5.84499 l 14.25655,-1.28577 z m 23.27667,-10.47388 -5.58106,1.02456 -3.75093,11.2033 -6.60931,-9.30141 -6.19047,1.13642 3.1296,20.77358 5.0037,-0.91857 -2.34071,-15.5371 7.86832,10.87584 4.25604,-13.1016 2.34071,15.53711 5.00371,-0.91856 z m 17.0914,3.29764 c 0.26045,1.11627 -0.14909,1.80693 -1.15769,2.08821 l -7.4385,2.07442 -1.04973,-4.49893 c -0.25256,-1.08245 0.14908,-1.80693 1.18921,-2.097 l 5.86254,-1.63493 c 1.00861,-0.28127 1.67861,0.14435 1.93118,1.22681 z m 4.3881,-3.7817 c -0.88398,-3.78857 -2.68899,-4.76234 -6.15608,-3.79544 l -8.98292,2.50512 c -3.62469,1.01085 -4.5618,2.89342 -3.49628,7.46 l 1.91004,8.18603 c 1.05763,4.53276 2.75239,5.75344 6.34556,4.75139 l 13.30103,-3.70935 -0.71824,-3.07822 -11.72508,3.26985 c -1.04013,0.29006 -1.71013,-0.13556 -1.97059,-1.25183 l -0.7577,-3.24735 8.98292,-2.50513 c 3.56166,-0.99326 4.57753,-2.96987 3.78037,-6.38635 z m 17.9401,4.81244 c 0.34044,1.09038 0.0229,1.83433 -0.99392,2.21021 l -11.2768,4.16879 0.9388,3.00681 13.31033,-4.92055 c 2.83461,-1.04788 3.84929,-3.08149 2.84859,-6.28655 l -0.70152,-2.24685 c -1.0007,-3.20505 -2.95417,-4.17826 -5.78879,-3.13036 l -7.45624,2.75641 c -1.01677,0.37588 -1.68512,-0.004 -2.02557,-1.09398 l -0.61899,-1.98251 c -0.33013,-1.05734 -0.0125,-1.80129 1.00423,-2.17716 l 11.03033,-4.07767 -0.9388,-3.00681 -13.06385,4.82942 c -2.8346,1.04789 -3.8596,3.04846 -2.85891,6.25352 l 0.58804,1.88338 c 0.99038,3.17202 2.95418,4.17826 5.78879,3.13037 l 7.45625,-2.75642 c 1.01676,-0.37587 1.68512,0.004 2.02556,1.09397 z" />
  </g>
</svg>
