<?xml version="1.0" encoding="UTF-8" standalone="no"?>
<!-- Created with Inkscape (http://www.inkscape.org/) -->

<svg
   version="1.1"
   width="237.25789"
   height="342.91791"
   viewBox="0 0 237.25789 342.91792"
   style="fill:#000000;fill-opacity:1;fill-rule:nonzero;stroke:none;stroke-width:0.599121"
   id="svg1"
   xmlns="http://www.w3.org/2000/svg"
   xmlns:svg="http://www.w3.org/2000/svg">
  <defs
     id="defs1" />
  <path
     d="M 99.523896,4.0318401 C 42.106408,12.878849 -0.12791633,61.065984 2.9110281e-4,117.58618 0.15887945,135.91997 4.8351091,153.94953 13.635851,170.16491 h 17.531 C 21.048185,154.50779 15.599065,136.43037 15.423464,117.94417 15.363917,75.070794 43.451675,36.942288 85.222996,23.198587 Z M 137.27461,4.2279677 151.9899,23.54949 c 40.9316,13.877801 68.49984,51.237746 68.9033,93.38155 l 0.005,0.67581 c -0.0146,18.57187 -5.35008,36.77157 -15.41406,52.55806 h 17.15124 c 8.76793,-16.35361 13.34877,-34.52377 13.35788,-52.96626 l -0.004,-0.77329 C 235.49973,60.673731 193.84933,13.336086 137.27461,4.2279677 Z"
     id="path1"
     style="fill:#000000;fill-opacity:1;fill-rule:nonzero;stroke:none;stroke-width:0.599121" />
  <path
     d="m 118.12005,0 22.57666,29.341162 -44.780849,-0.07384 z"
     id="path2"
     style="fill:#000000;fill-opacity:1;fill-rule:nonzero;stroke:none;stroke-width:0.599121" />
  <path
     d="m 121.40969,32.098763 8.19799,8.692825 7.74713,-8.330106 z"
     id="path3"
     style="fill:#000000;fill-opacity:1;fill-rule:nonzero;stroke:none;stroke-width:0.599121" />
  <path
     d="m 103.81732,74.247293 14.23164,-14.923418 14.45706,14.778094 -5.96256,8.113303 -8.56802,-10.358728 -7.67361,10.28725 z"
     id="path4"
     style="fill:#000000;fill-opacity:1;fill-rule:nonzero;stroke:none;stroke-width:0.599121" />
  <path
     d="m 129.00735,83.673824 19.37269,-25.715755 2.30956,2.895836 1.11802,-2.895836 5.81247,0.142962 0.96855,-1.809454 h -6.18555 l 5.81247,-9.562404 24.88622,36.65637 -17.4356,0.07148 -12.29455,-15.430871 -12.74115,15.647674 z"
     id="path5"
     style="fill:#000000;fill-opacity:1;fill-rule:nonzero;stroke:none;stroke-width:0.599121" />
  <path
     d="m 26.99859,120.68287 24.58727,-35.714719 6.4845,8.404539 2.160082,-2.536072 -4.918061,-5.649304 52.829369,0.07207 6.70506,8.475429 -7.59948,0.145323 5.29053,6.373564 -0.0735,2.10246 -22.427796,-0.0739 7.151669,-8.185367 -4.319559,0.07207 -5.14349,8.187147 -15.0507,0.0715 -5.663003,-7.172246 -11.549606,15.357616 -20.341233,0.14533 7.154097,10.06985 z"
     id="path6"
     style="fill:#000000;fill-opacity:1;fill-rule:nonzero;stroke:none;stroke-width:0.599121" />
  <path
     d="m 165.08954,120.66455 6.51732,-8.40217 6.51792,0.13882 4.53344,5.92341 2.4092,-1.79055 -3.11647,-3.85816 14.4522,0.13823 -5.52568,7.98925 z"
     id="path7"
     style="fill:#000000;fill-opacity:1;fill-rule:nonzero;stroke:none;stroke-width:0.599121" />
  <path
     d="m 108.6643,42.882237 9.46304,-10.213404 9.762,10.141924 -9.61252,11.300378 z"
     id="path8"
     style="fill:#000000;fill-opacity:1;fill-rule:nonzero;stroke:none;stroke-width:0.599121" />
  <path
     d="M 81.615566,47.370723 94.878656,30.852881 116.48738,55.989707 H 87.129095 Z"
     id="path9"
     style="fill:#000000;fill-opacity:1;fill-rule:nonzero;stroke:none;stroke-width:0.599121" />
  <path
     d="m 111.7996,84.546358 6.33504,-8.113896 6.48207,8.185375 -6.33503,8.620752 z"
     id="path10"
     style="fill:#000000;fill-opacity:1;fill-rule:nonzero;stroke:none;stroke-width:0.599121" />
  <path
     d="m 144.06049,83.523777 9.16409,-10.430211 9.01645,10.430211 z"
     id="path11"
     style="fill:#000000;fill-opacity:1;fill-rule:nonzero;stroke:none;stroke-width:0.599121" />
  <path
     d="M 73.417583,83.457021 82.584108,72.95297 91.748204,83.602345 Z"
     id="path12"
     style="fill:#000000;fill-opacity:1;fill-rule:nonzero;stroke:none;stroke-width:0.599121" />
  <path
     d="m 57.920885,111.27051 9.686044,-11.08357 9.31357,11.2289 z"
     id="path13"
     style="fill:#000000;fill-opacity:1;fill-rule:nonzero;stroke:none;stroke-width:0.599121" />
  <path
     d="m 159.42411,111.17127 8.42341,-10.69132 9.84524,10.86441 z"
     id="path14"
     style="fill:#000000;fill-opacity:1;fill-rule:nonzero;stroke:none;stroke-width:0.599121" />
  <path
     d="m 120.96371,58.103393 13.41013,13.256925 9.7626,-13.328404 z"
     id="path15"
     style="fill:#000000;fill-opacity:1;fill-rule:nonzero;stroke:none;stroke-width:0.599121" />
  <path
     d="m 74.685073,103.95294 5.663003,7.6797 h 13.486085 l -6.184946,-7.75117 z"
     id="path16"
     style="fill:#000000;fill-opacity:1;fill-rule:nonzero;stroke:none;stroke-width:0.599121" />
  <path
     d="m 98.901696,32.315567 7.600084,8.621345 8.71811,-8.692825 z"
     id="path17"
     style="fill:#000000;fill-opacity:1;fill-rule:nonzero;stroke:none;stroke-width:0.599121" />
  <path
     d="M 78.261514,47.086575 52.779829,83.523777 69.916485,83.597618 82.508159,68.021423 95.025697,83.669101 107.24733,83.523777 88.097637,58.024825 86.011075,61.065984 84.52059,58.532274 h -5.663003 l -1.639963,-2.247197 7.376487,-0.143551 z"
     id="path18"
     style="fill:#000000;fill-opacity:1;fill-rule:nonzero;stroke:none;stroke-width:0.599121" />
  <path
     d="m 39.217792,112.64577 5.959519,8.1133 25.707716,0.14355 -6.408546,-8.5475 h -6.558024 l -5.065107,6.15676 -2.236032,-1.8833 3.204578,-4.20198 z"
     id="path19"
     style="fill:#000000;fill-opacity:1;fill-rule:nonzero;stroke:none;stroke-width:0.599121" />
  <path
     d="m 128.57534,85.132375 52.41193,0.17309 -5.14592,5.602632 1.95106,3.188849 6.56288,-9.223318 24.91964,36.037852 h -15.51796 l 6.82841,-10.00132 -20.31024,-0.34381 -11.79387,-15.260149 -5.40902,6.897549 h -15.07683 l -4.52128,-8.3626 h -4.96789 l 6.91895,8.3626 -22.34942,0.17072 5.49956,-7.931349 -7.53811,-0.601971 z"
     id="path20"
     style="fill:#000000;fill-opacity:1;fill-rule:nonzero;stroke:none;stroke-width:0.599121" />
  <path
     d="m 119.53215,55.993841 22.13068,-25.136234 12.96414,16.589322 -5.06754,8.546912 z"
     id="path21"
     style="fill:#000000;fill-opacity:1;fill-rule:nonzero;stroke:none;stroke-width:0.599121" />
  <path
     d="m 92.120677,58.103393 10.355633,13.402248 12.8171,-13.328404 z"
     id="path22"
     style="fill:#000000;fill-opacity:1;fill-rule:nonzero;stroke:none;stroke-width:0.599121" />
  <path
     d="m 120.79053,95.246534 -2.45903,2.245425 -2.8315,-2.173942 -3.57705,23.470323 -7.22762,-11.6625 -4.24603,-4.12813 1.86356,5.06978 -9.760166,-2.31691 2.978544,3.5492 6.931102,2.17395 8.64155,15.71915 -11.02706,-3.18707 -21.682248,0.50804 -4.544982,-12.17054 h -2.534985 l 3.056927,9.63447 -2.907453,-0.57952 3.653001,4.2002 -9.762603,0.50745 -8.717497,-3.83985 -10.87819,0.14533 11.473657,2.60755 6.854539,3.69452 21.088605,-0.28828 13.560216,0.94165 11.625553,6.95249 1.48806,10.57789 -1.56401,5.28718 -8.79162,7.75354 -27.717725,11.00913 -4.918062,14.34449 -4.321988,0.57893 -2.236032,1.4491 2.309557,1.30378 7.004013,-0.43361 5.067536,-11.95374 5.513529,-1.73975 -2.905024,8.47602 -4.844542,6.59273 -0.892588,2.02862 2.905631,0.14532 0.222994,-1.95714 3.353446,-2.3169 2.383077,3.40387 0.821502,4.5647 3.650567,-3.54921 -1.191536,-8.04241 5.662998,-10.72085 20.267717,-8.18479 v 5.06979 l -19.076176,12.60415 0.372468,18.40055 3.724092,7.75117 0.07595,-23.03672 18.178726,-10.94061 7.52656,13.33136 2.38551,1.01313 -0.14947,-5.28895 -1.71409,-3.766 1.63814,-3.18708 14.1575,8.62135 -0.0735,6.59035 11.32661,3.11501 -7.07997,-5.50575 -0.0741,-7.60585 -17.06314,-11.30038 1.49109,-5.50575 17.8816,7.60585 5.58766,11.88167 2.98097,5.93995 2.23543,-2.96968 h 4.99158 l -3.72652,-3.26092 -3.27749,-10.4302 9.01705,2.5337 4.54255,12.16996 7.97499,-0.14296 5.66118,4.27404 9.762,-5.72314 -10.95354,0.28828 -2.98097,-2.02803 -5.81065,-0.0715 -5.29054,-13.83644 -30.92229,-12.02759 -10.13204,-24.26666 6.3326,-3.18648 25.03569,-4.71001 15.202,1.23229 7.45062,-3.69453 11.02705,-2.39074 -9.53657,-0.36213 -9.09057,3.62304 -10.65459,-0.65336 6.77859,-2.96968 -6.70507,-0.14532 3.20398,-9.563 -2.30895,-0.0715 -5.14106,12.02522 -22.87622,1.95655 13.0401,-14.92282 8.86514,-0.2174 5.36649,-7.17165 -12.96657,-0.14532 -2.53255,4.5641 -22.13068,18.54646 -1.26688,-4.20256 8.04851,-9.92453 9.24005,-3.62305 -0.076,-5.93995 -3.12863,0.14533 -0.22542,3.62068 -8.49208,1.81181 -7.15409,5.65108 z"
     id="path23"
     style="fill:#000000;fill-opacity:1;fill-rule:nonzero;stroke:none;stroke-width:0.599121" />
  <path
     d="m 68.924246,212.5143 20.936698,-19.39123 -0.108765,7.07063 -11.12974,10.49992 0.218743,14.14305 -9.916936,-4.07083 z"
     id="path24"
     style="fill:#000000;fill-opacity:1;fill-rule:nonzero;stroke:none;stroke-width:0.599121" />
  <path
     d="m 171.73749,180.16388 44.41082,-0.32314 -4.18649,5.03493 -31.62713,-0.10575 -2.64436,-1.71493 h -4.74003 z"
     id="path25"
     style="fill:#000000;fill-opacity:1;fill-rule:nonzero;stroke:none;stroke-width:0.599121" />
  <path
     d="m 150.88161,186.97813 2.67959,4.95931 2.83879,-2.96554 1.52634,3.63013 5.25712,3.83276 0.21145,1.1744 5.67758,-0.15241 17.03458,12.93202 -4.88951,3.42455 -5.52082,3.06893 -0.0523,-6.59509 -24.81513,-18.09632 z"
     id="path26"
     style="fill:#000000;fill-opacity:1;fill-rule:nonzero;stroke:none;stroke-width:0.599121" />
  <path
     d="m 132.39908,186.1564 0.1118,44.03597 3.74536,-0.42888 0.22056,-32.14248 10.02813,7.82265 0.10937,22.49678 19.50516,-6.42672 0.10937,-6.10831 -30.52309,-22.71359 -0.10937,-4.82048 z m 17.38578,20.18047 h 2.61336 l 0.12092,6.81662 -2.37822,-0.11579 z m 7.55269,9.1542 c 1.7943,-0.002 3.25198,1.43965 3.2544,3.2237 l -3.24954,0.005 h 3.24954 c 0,1.7811 -1.45524,3.22784 -3.24711,3.22784 -1.7943,0 -3.24954,-1.44201 -3.25197,-3.22607 -0.002,-1.7811 1.45038,-3.22783 3.24468,-3.23019 z"
     id="path27"
     style="fill:#000000;fill-opacity:1;fill-rule:nonzero;stroke:none;stroke-width:0.599121" />
  <path
     d="m 53.496817,212.63186 23.47351,-18.74732 4.187097,-2.24956 0.880438,4.92682 -15.978537,14.99904 v 8.35846 z"
     id="path28"
     style="fill:#000000;fill-opacity:1;fill-rule:nonzero;stroke:none;stroke-width:0.599121" />
  <path
     d="m 115.31225,187.66576 3.19728,-2.99981 1.21281,3.53502 v 42.96081 l -4.62823,-0.10633 z"
     id="path29"
     style="fill:#000000;fill-opacity:1;fill-rule:nonzero;stroke:none;stroke-width:0.599121" />
  <path
     d="m 99.118006,188.41837 4.298294,-3.0004 v 44.89018 l -4.189529,-0.85599 z"
     id="path30"
     style="fill:#000000;fill-opacity:1;fill-rule:nonzero;stroke:none;stroke-width:0.599121" />
  <path
     d="m 19.114136,179.84547 h 48.817867 l -1.212804,3.32058 h -2.643746 l -2.205048,1.4999 -38.678543,0.10633 z"
     id="path31"
     style="fill:#000000;fill-opacity:1;fill-rule:nonzero;stroke:none;stroke-width:0.599121" />
  <path
     d="m 160.33554,185.53848 1.42182,2.45278 -3.10249,0.66459 1.83926,0.7662 2.73428,4.03834 2.05071,1.32917 h 4.83725 l 18.19087,13.8524 6.41341,-4.85534 5.94312,-5.36751 5.20485,-4.95872 4.83725,-6.13372 -18.77175,-0.0508 -9.35915,5.51993 10.25356,0.10338 0.0237,1.17263 c 0.14279,-1.66413 1.54274,-2.94487 3.22341,-2.95137 1.7943,-0.002 3.24955,1.43965 3.2538,3.2237 l -3.24894,0.005 h 3.24894 c 0,1.78346 -1.45464,3.22783 -3.24894,3.2302 -1.61383,0 -2.9834,-1.17677 -3.21369,-2.7641 l 0.014,0.79337 -12.56554,-0.15418 -5.62715,-4.24156 -9.6745,-0.20558 -2.83879,-5.06033 z m 22.96371,12.94561 6.41767,2.54021 -1.07063,1.73324 -5.94068,-2.42501 z"
     id="path32"
     style="fill:#000000;fill-opacity:1;fill-rule:nonzero;stroke:none;stroke-width:0.599121" />
  <path
     d="m 91.736055,201.69833 -10.578631,10.07045 0.329936,13.71416 15.098094,3.64136 -0.221171,-18.10577 z m -2.700864,11.2289 c 1.791866,-0.002 3.249543,1.43965 3.251972,3.2237 l -3.24711,0.005 h 3.24711 c 0,1.78346 -1.452815,3.22842 -3.24711,3.22842 -1.794299,0.002 -3.249544,-1.4426 -3.251973,-3.2237 0,-1.78404 1.452816,-3.23078 3.247111,-3.23315 z"
     id="path33"
     style="fill:#000000;fill-opacity:1;fill-rule:nonzero;stroke:none;stroke-width:0.599121" />
  <path
     d="m 169.20737,173.09561 51.01866,0.21444 -3.08548,4.07083 -46.39043,-0.21445 z"
     id="path34"
     style="fill:#000000;fill-opacity:1;fill-rule:nonzero;stroke:none;stroke-width:0.599121" />
  <path
     d="m 14.92704,173.19721 54.76888,0.32078 -0.880439,3.75005 -51.132893,0.21444 z"
     id="path35"
     style="fill:#000000;fill-opacity:1;fill-rule:nonzero;stroke:none;stroke-width:0.599121" />
  <path
     d="m 90.214578,216.18342 c 0,0.55826 -0.512223,1.01254 -1.14597,1.01254 -0.633743,0 -1.149004,-0.45428 -1.149004,-1.01254 0,-0.55884 0.512828,-1.01313 1.146575,-1.01313 0.633747,-0.002 1.148399,0.45192 1.148399,1.01077 l -1.148399,0.002 z"
     id="path36"
     style="fill:#000000;fill-opacity:1;fill-rule:nonzero;stroke:none;stroke-width:0.599121" />
  <path
     d="m 197.07517,194.53082 c 0,0.55884 -0.51283,1.01312 -1.14657,1.01312 -0.63375,0 -1.14901,-0.45428 -1.14901,-1.01312 0,-0.55826 0.51283,-1.01313 1.14658,-1.01313 0.63374,-0.002 1.149,0.45251 1.149,1.01076 l -1.149,0.002 z"
     id="path37"
     style="fill:#000000;fill-opacity:1;fill-rule:nonzero;stroke:none;stroke-width:0.599121" />
  <path
     d="m 158.56251,218.6108 c 0,0.55825 -0.51283,1.01313 -1.14657,1.01313 -0.63375,0 -1.14901,-0.45252 -1.14901,-1.01313 0,-0.55826 0.51283,-1.01313 1.14657,-1.01313 0.63375,0 1.14901,0.45251 1.14901,1.01076 l -1.14901,0.002 z"
     id="path38"
     style="fill:#000000;fill-opacity:1;fill-rule:nonzero;stroke:none;stroke-width:0.599121" />
  <path
     d="m 127.24891,206.85613 c 0,0.55826 -0.51283,1.01255 -1.14658,1.01255 -0.63374,0 -1.14657,-0.45429 -1.14901,-1.01255 0,-0.55884 0.51284,-1.01312 1.14658,-1.01312 0.63375,-0.002 1.14901,0.45192 1.14901,1.01076 l -1.14658,0.002 z"
     id="path39"
     style="fill:#000000;fill-opacity:1;fill-rule:nonzero;stroke:none;stroke-width:0.599121" />
  <path
     d="m 45.509678,194.5125 c 0,0.56062 -0.51526,1.01313 -1.149006,1.01313 -0.633138,0.002 -1.145968,-0.45251 -1.145968,-1.01076 -0.0024,-0.56062 0.510399,-1.01313 1.144145,-1.01313 0.633746,-0.002 1.148398,0.45014 1.150829,1.01076 h -1.149006 z"
     id="path40"
     style="fill:#000000;fill-opacity:1;fill-rule:nonzero;stroke:none;stroke-width:0.599121" />
  <path
     d="m 140.61651,193.40958 11.40681,3.06656 20.55937,14.97659 0.10451,6.95249 -2.99556,1.63636 -0.15919,-5.42068 z"
     id="path41"
     style="fill:#000000;fill-opacity:1;fill-rule:nonzero;stroke:none;stroke-width:0.599121" />
  <path
     d="m 139.15154,202.66775 4.57415,3.62954 0.15677,22.18546 -4.62641,0.92038 z"
     id="path42"
     style="fill:#000000;fill-opacity:1;fill-rule:nonzero;stroke:none;stroke-width:0.599121" />
  <path
     d="m 127.26774,183.41062 -0.0286,20.32283 c 1.35985,0.4153 2.29254,1.66413 2.29497,3.07838 l -3.24893,0.005 h 3.24893 c 0,1.78405 -1.4522,3.22843 -3.2465,3.22843 -1.7949,0.002 -3.24954,-1.44202 -3.25197,-3.22607 0,-1.26242 0.74069,-2.40906 1.89394,-2.93541 l -0.0851,-14.13182 -2.30956,-0.89735 0.0286,42.22002 7.21547,-0.27943 0.0851,-44.27108 -2.59635,-3.11559 z"
     id="path43"
     style="fill:#000000;fill-opacity:1;fill-rule:nonzero;stroke:none;stroke-width:0.599121" />
  <path
     d="m 24.974006,187.34735 7.71432,8.96752 7.210606,6.52124 11.236076,7.98866 23.310054,-17.93446 -3.856549,-0.65336 0.839725,-1.79291 -6.206209,0.3255 -5.701283,4.56705 -12.00775,0.14946 c -0.432016,1.33154 -1.678243,2.2342 -3.085486,2.23834 -1.794297,0 -3.249542,-1.44437 -3.251973,-3.22547 0,-1.78406 1.452816,-3.22843 3.244682,-3.23079 1.101611,-0.002 2.129093,0.55116 2.729419,1.46741 l 11.868,0.15477 3.856554,-3.26091 -4.02304,-2.12019 z m 21.463506,7.14448 -2.012433,0.002 h 2.012433 z m 12.304269,4.11454 0.83365,2.42738 -5.706141,1.84844 -1.070626,-2.42738 z"
     id="path44"
     style="fill:#000000;fill-opacity:1;fill-rule:nonzero;stroke:none;stroke-width:0.599121" />
  <path
     d="m 105.95128,185.42033 6.50091,-5.3557 0.10937,50.99555 -6.38971,-0.74966 z"
     id="path45"
     style="fill:#000000;fill-opacity:1;fill-rule:nonzero;stroke:none;stroke-width:0.599121" />
  <path
     style="font-size:215.664px;font-family:Quadaptor;-inkscape-font-specification:'Quadaptor, Normal';text-align:center;text-anchor:middle;stroke:#000000;stroke-width:0.911777"
     d="m 41.379995,305.1835 c 0,3.9038 -1.516361,5.91485 -4.643875,5.91485 H 2.0491934 v 10.765 H 42.99114 c 8.719122,0 13.268222,-5.32337 13.268222,-16.79815 v -8.04418 c 0,-11.47478 -4.5491,-16.91644 -13.268222,-16.91644 H 20.056067 c -3.127504,0 -4.643867,-2.01105 -4.643867,-5.91485 v -7.09781 c 0,-3.7855 1.516363,-5.79654 4.643867,-5.79654 H 53.984813 V 250.53037 H 13.801051 c -8.7191165,0 -13.26822072,5.20506 -13.26822072,16.67985 v 6.74292 c 0,11.3565 4.54910422,16.91646 13.26822072,16.91646 H 36.73612 c 3.127514,0 4.643875,2.01103 4.643875,5.91483 z M 79.668309,250.53037 H 64.883721 v 72.39765 c 0,14.31391 3.980464,19.51898 14.784588,19.51898 H 104.9727 V 331.56369 H 84.406957 c -3.127507,0 -4.738648,-1.89275 -4.738648,-5.79655 z m 25.209571,0 H 89.998513 v 71.33298 h 14.879367 z m 50.70356,60.56798 h -22.08211 c -3.1275,0 -4.73866,-2.01105 -4.73866,-5.91485 v -38.09158 c 0,-3.7855 1.61116,-5.79654 4.73866,-5.79654 h 22.08211 z m 14.97413,-60.56798 h -41.98444 c -11.27799,0 -14.59504,5.91485 -14.59504,18.8092 v 33.95118 c 0,13.01266 3.98048,18.5726 14.78458,18.5726 h 26.82077 v 3.90379 c 0,3.9038 -1.61114,5.79655 -4.64388,5.79655 H 119.28337 V 342.447 h 36.39284 c 10.80413,0 14.87936,-5.44166 14.87936,-21.29343 z m 66.24643,12.89434 c 0,-8.51736 -4.07525,-12.89434 -9.66685,-12.89434 h -7.48707 c -5.02297,0 -6.91843,1.77446 -8.81389,6.15144 l -15.8271,35.37075 v -62.10583 h -14.97412 v 91.91662 h 11.94138 l 25.11486,-55.8361 c 0.66341,-1.53785 1.51637,-2.36593 2.36932,-2.36593 1.61113,0 2.4641,1.30126 2.4641,3.9038 v 54.29823 H 236.802 Z"
     id="text45"
     aria-label="sligh" />
  <path
     d="m 181.63648,337.75581 h -2.44077 v 1.71675 h 2.44077 z"
     id="path46"
     style="font-size:34.5062px;font-family:Quadaptor;-inkscape-font-specification:'Quadaptor, Normal';text-align:center;text-anchor:middle;stroke:#000000;stroke-width:0.53507" />
  <path
     d="m 190.00706,337.8106 h -3.64549 c -0.51633,0 -0.78231,-0.31047 -0.78231,-0.91316 v -5.88077 c 0,-0.58443 0.26598,-0.89491 0.78231,-0.89491 h 3.64549 z m 2.47205,-9.35078 h -6.93114 c -1.86186,0 -2.40947,0.91316 -2.40947,2.90384 v 5.24157 c 0,2.00895 0.65712,2.86733 2.44076,2.86733 h 4.4278 v 0.60269 c 0,0.60268 -0.26598,0.8949 -0.76664,0.8949 h -5.22575 v 1.68022 h 6.00803 c 1.78364,0 2.45641,-0.84012 2.45641,-3.2874 z m 4.72509,9.35078 c -0.5476,0 -0.81357,-0.27396 -0.81357,-0.82185 v -2.64816 c 0,-0.62096 0.26597,-0.93143 0.82923,-0.93143 h 3.58293 v 4.40144 z m 6.07064,-6.06339 c 0,-2.46556 -0.65714,-3.28739 -2.44078,-3.28739 h -6.60258 v 1.66194 h 5.71077 c 0.57889,0 0.86054,0.38354 0.86054,1.11406 v 0.51139 h -4.41216 c -1.79929,0 -2.45643,0.78531 -2.45643,3.28737 v 1.13233 c 0,2.52032 0.70408,3.30565 2.45643,3.30565 h 6.88421 z m 12.36029,-3.28739 h -2.72239 l -2.58159,5.42418 -2.47205,-5.42418 h -3.01967 v 11.01274 h 2.44076 v -8.23674 l 2.95708,6.35562 2.95709,-6.35562 v 8.23674 h 2.44077 z m 8.40188,4.09097 c 0,0.60268 -0.26598,0.89489 -0.76665,0.89489 h -3.69243 v -2.42901 c 0,-0.58443 0.26597,-0.89491 0.78228,-0.89491 h 2.91015 c 0.50067,0 0.76665,0.31048 0.76665,0.89491 z m 2.45641,-1.29669 c 0,-2.0455 -0.73537,-2.79428 -2.45641,-2.79428 h -4.45908 c -1.79929,0 -2.44078,0.82183 -2.44078,3.28739 v 4.4197 c 0,2.44727 0.65714,3.30565 2.44078,3.30565 h 6.60257 v -1.66196 h -5.82029 c -0.51631,0 -0.78228,-0.31047 -0.78228,-0.91316 v -1.75327 h 4.45908 c 1.768,0 2.45641,-0.85837 2.45641,-2.70296 z m 8.02634,5.64334 c 0,0.60269 -0.25032,0.91316 -0.76663,0.91316 h -5.72642 v 1.66196 h 6.75906 c 1.43941,0 2.19043,-0.82185 2.19043,-2.59339 v -1.2419 c 0,-1.77154 -0.75102,-2.61165 -2.19043,-2.61165 h -3.78633 c -0.51631,0 -0.76665,-0.31048 -0.76665,-0.91316 v -1.09579 c 0,-0.58443 0.25034,-0.89491 0.76665,-0.89491 h 5.60125 v -1.66194 h -6.63388 c -1.43942,0 -2.19043,0.80357 -2.19043,2.57511 v 1.04101 c 0,1.75327 0.75101,2.61164 2.19043,2.61164 h 3.78632 c 0.51631,0 0.76663,0.31048 0.76663,0.91316 z"
     id="path47"
     style="font-size:34.5062px;font-family:Quadaptor;-inkscape-font-specification:'Quadaptor, Normal';text-align:center;text-anchor:middle;stroke:#000000;stroke-width:0.53507" />
</svg>
