<?xml version='1.0' encoding='utf-8'?>
<!--
Copyright © 2025 Frederic Nowak. All Rights Reserved.
Copyright © 2025 Sligh Games. All Rights Reserved.
-->
<svg xmlns="http://www.w3.org/2000/svg" xmlns:ns1="http://sodipodi.sourceforge.net/DTD/sodipodi-0.dtd" xmlns:ns2="http://www.inkscape.org/namespaces/inkscape" version="1.1" width="517.85394" height="521.74005" viewBox="0 0 517.85395 521.74007" id="svg1" ns1:docname="logo.svg" ns2:version="1.4 (e7c3feb1, 2024-10-09)">
  <g id="water" style="fill:#5e8ca7;fill-opacity:1.0">
    <path d="m 376.85396,406.63601 97.45333,-0.72933 -9.18666,11.364 -69.40133,-0.23867 -5.80267,-3.87066 H 379.5153 Z" />
    <path d="m 151.24464,479.65201 45.94266,-43.76667 -0.23867,15.95867 -24.42266,23.69867 0.48,31.92133 -21.76133,-9.188 z" />
  </g>
  <g id="sun" style="opacity:1;fill:#f9a825;fill-opacity:1;fill-rule:nonzero;stroke:none;stroke-width:1.33333">
    <path d="M 218.3913,9.1000218 C 92.396637,29.068021 -0.28069354,137.82802 6.397815e-4,265.39602 0.34863977,306.77601 10.609973,347.46935 29.921972,384.06801 H 68.391305 C 46.187305,348.72935 34.229972,307.92801 33.844639,266.20402 33.713972,169.43735 95.348637,83.38002 187.00997,52.360021 Z m 82.83867,0.4426667 32.29066,43.6093325 C 423.3393,84.474687 483.83396,168.79735 484.71929,263.91735 l 0.0107,1.52533 c -0.032,41.91733 -11.74,82.99467 -33.824,118.62533 h 37.636 c 19.24,-36.91066 29.292,-77.92133 29.312,-119.54666 l -0.009,-1.74533 C 516.77129,136.94269 425.3753,30.100021 301.22997,9.5426885 Z" />
  </g>
  <g id="leaves-normal" style="fill:#e67e22;fill-opacity:1.0;fill-rule:nonzero;stroke:none;stroke-width:1.33333">
    <path d="M 259.19797,2.20241e-5 308.7393,66.22402 210.47397,66.057354 Z" />
    <path d="m 266.41663,72.44802 17.98934,19.62 17,-18.801333 z" />
    <path d="m 227.81263,167.57868 31.22934,-33.68266 31.724,33.35466 -13.084,18.312 -18.80134,-23.38 -16.83866,23.21867 z" />
    <path d="m 283.08863,188.85468 42.51067,-58.04133 5.068,6.536 2.45333,-6.536 12.75467,0.32267 2.12533,-4.084 H 334.4273 l 12.75466,-21.58267 54.60934,82.73467 -38.26,0.16133 -26.97867,-34.828 -27.95866,35.31733 z" />
    <path d="m 59.244638,272.38535 53.953332,-80.60933 14.22933,18.96933 4.74,-5.724 -10.792,-12.75067 115.92667,0.16267 14.71333,19.12933 -16.676,0.328 11.60933,14.38534 -0.16133,4.74533 -49.21467,-0.16667 15.69334,-18.47466 -9.47867,0.16266 -11.28667,18.47867 -33.02666,0.16133 -12.42667,-16.188 -25.344,34.66267 -44.635995,0.328 15.698666,22.728 z" />
    <path d="m 362.26596,272.34402 14.30134,-18.964 14.30266,0.31333 9.948,13.36933 5.28667,-4.04133 -6.83867,-8.708 31.71334,0.312 -12.12534,18.032 z" />
  </g>
  <g id="leaves-light" style="fill:#f39c12;fill-opacity:1.0;fill-rule:nonzero;stroke:none;stroke-width:1.33333">
    <path d="M 238.44863,96.786686 259.21397,73.734687 280.6353,96.625353 259.54197,122.13069 Z" />
    <path d="m 179.09397,106.91735 29.104,-37.28133 47.41733,56.73467 h -64.42266 z" />
    <path d="m 245.32863,190.82402 13.90134,-18.31334 14.224,18.47467 -13.90134,19.45733 z" />
    <path d="m 316.12063,188.51602 20.10933,-23.54134 19.78534,23.54134 z" />
    <path d="m 161.10464,188.36535 20.11466,-23.708 20.10933,24.036 z" />
    <path d="m 127.0993,251.14135 21.25467,-25.016 20.43733,25.344 z" />
    <path d="m 349.83396,250.91735 18.484,-24.13067 21.604,24.52134 z" />
    <path d="m 265.43797,131.14135 29.42666,29.92133 21.42267,-30.08266 z" />
  </g>
  <g id="leaves-dark" style="fill:#c0392b;fill-opacity:1.0;fill-rule:nonzero;stroke:none;stroke-width:1.33333">
    <path d="m 163.88597,234.62535 12.42667,17.33333 h 29.59333 l -13.572,-17.49466 z" />
    <path d="m 217.02597,72.937354 16.67733,19.458666 19.13067,-19.62 z" />
    <path d="m 171.73397,106.27602 -55.916,82.24 37.604,0.16666 27.63067,-35.156 27.46799,35.31734 26.81867,-0.328 -42.02133,-57.552 -4.57867,6.864 -3.27066,-5.71867 h -12.42667 l -3.59867,-5.072 16.18667,-0.324 z" />
    <path d="m 86.057971,254.24535 13.077333,18.312 56.411996,0.324 -14.06266,-19.292 h -14.39067 l -11.11467,13.896 -4.90666,-4.25067 7.032,-9.484 z" />
    <path d="m 282.14063,192.14668 115.01067,0.39067 -11.292,12.64533 4.28133,7.19734 14.40133,-20.81734 54.68267,81.33867 h -34.052 l 14.984,-22.57333 -44.568,-0.776 -25.88,-34.44267 -11.86933,15.568 h -33.084 l -9.92133,-18.87467 h -10.90134 l 15.18267,18.87467 -49.04267,0.38533 12.068,-17.90133 -16.54133,-1.35867 z" />
    <path d="m 262.29663,126.38002 48.56267,-56.733333 28.448,37.442663 -11.12,19.29067 z" />
    <path d="m 202.14597,131.14135 22.724,30.24933 28.12533,-30.08266 z" />
  </g>
  <g id="trunk" style="fill:#6d4c41;fill-opacity:1.0;fill-rule:nonzero;stroke:none;stroke-width:1.33333">
    <path d="m 265.05797,214.97468 -5.396,5.068 -6.21334,-4.90666 -7.84933,52.97333 -15.86,-26.32267 -9.31733,-9.31733 4.08933,11.44267 -21.41733,-5.22934 6.536,8.01067 15.20933,4.90667 18.96267,35.47866 -24.19734,-7.19333 -47.57866,1.14666 -9.97333,-27.46933 h -5.56267 l 6.708,21.74534 -6.38,-1.308 8.016,9.47999 -21.42267,1.14534 -19.12933,-8.66667 -23.87067,0.328 25.17734,5.88533 15.04133,8.33867 46.276,-0.65067 29.756,2.12534 25.51066,15.692 3.26534,23.87466 -3.432,11.93334 -19.292,17.5 -60.82267,24.848 -10.792,32.37599 -9.484,1.30667 -4.90666,3.27067 5.068,2.94266 15.36933,-0.97866 11.12,-26.98 12.09867,-3.92667 -6.37467,19.13067 -10.63067,14.88 -1.95866,4.57866 6.376,0.328 0.48933,-4.41733 7.35867,-5.22933 5.22933,7.68266 1.80267,10.30267 8.01066,-8.01067 -2.61466,-18.152 12.42666,-24.19733 44.47467,-18.47333 v 11.44267 l -41.86,28.448 0.81733,41.53066 8.172,17.49467 0.16667,-51.99467 39.89066,-24.69333 16.516,30.08933 5.23467,2.28667 -0.328,-11.93734 -3.76133,-8.49999 3.59466,-7.19334 31.06667,19.45867 -0.16133,14.87466 24.85466,7.03067 -15.536,-12.42667 -0.16266,-17.16666 -37.44267,-25.50533 3.272,-12.42667 39.23867,17.16667 12.26133,26.81733 6.54133,13.40666 4.90533,-6.70266 h 10.95334 l -8.17734,-7.36 -7.192,-23.54133 19.78667,5.71866 9.968,27.468 17.5,-0.32267 12.42267,9.64667 21.42133,-12.91733 -24.036,0.65066 -6.54133,-4.57733 -12.75067,-0.16133 -11.60933,-31.22933 -67.85467,-27.14667 -22.23333,-54.77067 13.896,-7.192 54.93733,-10.63066 33.35867,2.78133 16.34933,-8.33867 24.19733,-5.39599 -20.92666,-0.81734 -19.948,8.17733 -23.38,-1.47466 14.87466,-6.70267 -14.71333,-0.328 7.03067,-21.584 -5.06667,-0.16133 -11.28133,27.14133 -50.19867,4.416 28.61467,-33.68133 19.45333,-0.49067 11.776,-16.18666 -28.45333,-0.328 -5.55733,10.30133 -48.56267,41.86 -2.78,-9.48533 17.66133,-22.4 20.276,-8.17734 -0.16666,-13.40666 -6.86534,0.328 -0.49466,8.172 -18.63467,4.08933 -15.69867,12.75467 z" />
  </g>
  <g id="roots-normal" style="fill:#d7ccc8;fill-opacity:1.0;fill-rule:nonzero;stroke:none;stroke-width:1.33333">
    <path d="m 351.83396,418.76668 3.12,5.536 -6.808,1.5 4.036,1.72933 6,9.11467 4.5,3 h 10.61467 l 39.91733,31.26533 14.07334,-10.95867 13.04133,-12.11466 11.42133,-11.192 10.61467,-13.844 -41.192,-0.11467 -20.53733,12.45867 22.5,0.23333 0.052,2.64667 c 0.31333,-3.756 3.38533,-6.64667 7.07333,-6.66134 3.93733,-0.005 7.13067,3.24934 7.14,7.276 l -7.12933,0.0107 h 7.12933 c 0,4.02533 -3.192,7.28533 -7.12933,7.29067 -3.54134,0 -6.54667,-2.656 -7.052,-6.23867 l 0.0307,1.79067 -27.57333,-0.348 -12.348,-9.57334 -21.22933,-0.464 -6.22934,-11.42133 z m 50.39067,29.21866 14.08267,5.73334 -2.34934,3.912 -13.036,-5.47334 z" />
    <path d="m 201.30197,455.24001 -23.21333,22.72933 0.724,30.95334 33.13066,8.21866 -0.48533,-40.86533 z m -5.92667,25.344 c 3.932,-0.005 7.13067,3.24933 7.136,7.276 l -7.12533,0.0107 h 7.12533 c 0,4.02533 -3.188,7.28666 -7.12533,7.28666 -3.93734,0.004 -7.13067,-3.256 -7.136,-7.276 0,-4.02666 3.188,-7.292 7.12533,-7.29733 z" />
    <path d="m 371.30196,390.68268 111.95333,0.484 -6.77066,9.188 -101.79733,-0.484 z" />
    <path d="m 32.755306,390.91201 120.182664,0.724 -1.932,8.464 -112.203998,0.484 z" />
  </g>
  <g id="roots-light" style="fill:#bcaaa4;fill-opacity:1.0;fill-rule:nonzero;stroke:none;stroke-width:1.33333">
    <path d="m 331.08863,422.01601 5.88,11.19333 6.22933,-6.69333 3.34934,8.19333 11.536,8.65067 0.464,2.65067 12.45866,-0.344 37.38,29.188 -10.72933,7.72933 -12.11467,6.92667 -0.11466,-14.88534 -54.45334,-40.844 z" />
    <path d="m 290.5313,420.16134 0.24533,99.39067 8.21867,-0.968 0.484,-72.54667 22.00533,17.656 0.24,50.776 42.80133,-14.50533 0.24,-13.78667 -66.97866,-51.26533 -0.24,-10.88 z m 38.15066,45.548 h 5.73467 l 0.26533,15.38534 -5.21866,-0.26134 z m 16.57334,20.66134 c 3.93733,-0.005 7.136,3.24933 7.14133,7.276 l -7.13067,0.0107 h 7.13067 c 0,4.02 -3.19333,7.28534 -7.12533,7.28534 -3.93734,0 -7.13067,-3.25467 -7.136,-7.28134 -0.005,-4.02 3.18266,-7.28533 7.12,-7.29066 z" />
    <path d="m 117.3913,479.91734 51.50934,-42.31333 9.188,-5.07733 1.932,11.12 -35.06267,33.85333 v 18.86533 z" />
    <path d="m 253.03663,423.56801 7.016,-6.77067 2.66134,7.97867 v 96.964 l -10.156,-0.24 z" />
    <path d="m 217.50063,425.26668 9.432,-6.772 v 101.31866 l -9.19333,-1.932 z" />
    <path d="M 41.943305,405.91735 H 149.0673 l -2.66133,7.49466 h -5.80133 l -4.83867,3.38533 -84.874665,0.24 z" />
  </g>
  <g id="roots-dark" style="fill:#8d6e63;fill-opacity:1.0;fill-rule:nonzero;stroke:none;stroke-width:1.33333">
    <path d="m 197.9633,487.93334 c 0,1.26 -1.124,2.28534 -2.51467,2.28534 -1.39066,0 -2.52133,-1.02534 -2.52133,-2.28534 0,-1.26133 1.12533,-2.28666 2.516,-2.28666 1.39067,-0.005 2.52,1.02 2.52,2.28133 l -2.52,0.005 z" />
    <path d="m 432.45396,439.06268 c 0,1.26133 -1.12533,2.28666 -2.516,2.28666 -1.39066,0 -2.52133,-1.02533 -2.52133,-2.28666 0,-1.26 1.12533,-2.28667 2.516,-2.28667 1.39067,-0.005 2.52133,1.02133 2.52133,2.28133 l -2.52133,0.005 z" />
    <path d="m 347.9433,493.41201 c 0,1.26 -1.12534,2.28667 -2.516,2.28667 -1.39067,0 -2.52134,-1.02134 -2.52134,-2.28667 0,-1.26 1.12534,-2.28667 2.516,-2.28667 1.39067,0 2.52134,1.02134 2.52134,2.28134 l -2.52134,0.005 z" />
    <path d="m 279.22997,466.88134 c 0,1.26 -1.12534,2.28534 -2.516,2.28534 -1.39067,0 -2.516,-1.02534 -2.52134,-2.28534 0,-1.26133 1.12534,-2.28666 2.516,-2.28666 1.39067,-0.005 2.52134,1.02 2.52134,2.28133 l -2.516,0.005 z" />
    <path d="m 99.864637,439.02134 c 0,1.26534 -1.130666,2.28667 -2.521333,2.28667 -1.389333,0.005 -2.514667,-1.02133 -2.514667,-2.28133 -0.0053,-1.26534 1.12,-2.28667 2.510667,-2.28667 1.390667,-0.005 2.52,1.016 2.525333,2.28133 h -2.521333 z" />
    <path d="m 308.5633,436.53201 25.03066,6.92133 45.11467,33.80267 0.22933,15.692 -6.57333,3.69333 -0.34933,-12.23466 z" />
    <path d="m 305.34863,457.42801 10.03734,8.192 0.344,50.07333 -10.152,2.07734 z" />
    <path d="m 279.2713,413.96401 -0.0627,45.86933 c 2.984,0.93734 5.03067,3.756 5.036,6.948 l -7.12933,0.0107 h 7.12933 c 0,4.02667 -3.18666,7.28667 -7.124,7.28667 -3.93866,0.005 -7.13066,-3.25467 -7.136,-7.28134 0,-2.84933 1.62534,-5.43733 4.156,-6.62533 l -0.18666,-31.896 -5.068,-2.02533 0.0627,95.292 15.83334,-0.63067 0.18666,-99.92133 -5.69733,-7.032 z" />
    <path d="m 54.801972,422.84934 16.927999,20.24 15.822667,14.71867 24.656002,18.03067 51.15066,-40.47867 -8.46266,-1.47467 1.84266,-4.04666 -13.61866,0.73466 -12.51067,10.308 -26.34933,0.33734 c -0.948,3.00533 -3.68267,5.04266 -6.770669,5.052 -3.937334,0 -7.130667,-3.26 -7.136,-7.28 0,-4.02667 3.188,-7.28667 7.12,-7.292 2.417333,-0.005 4.671999,1.244 5.989329,3.312 l 26.04267,0.34933 8.46267,-7.36 -8.828,-4.78533 z m 47.098668,16.12534 -4.416003,0.005 h 4.416003 z m 27,9.28666 1.82933,5.47867 -12.52133,4.172 -2.34934,-5.47867 z" />
    <path d="m 232.4953,418.50001 14.26533,-12.088 0.24,115.09867 -14.02133,-1.692 z" />
  </g>
</svg>